<svg width="3804" height="586" viewBox="0 0 3804 586" fill="none" xmlns="http://www.w3.org/2000/svg">
<path fill-rule="evenodd" clip-rule="evenodd" d="M167.747 0.605071C100.888 5.83407 52.841 28.4151 27.464 66.5331C11.955 89.8301 5.271 113.524 4.271 148.752C3.704 168.724 4.697 180.875 8.095 195.553C16.515 231.922 40.864 261.579 87.917 292.778C104.701 303.906 116.502 310.854 155.5 332.567C204.346 359.762 219.1 369.589 235.015 385.524C246.675 397.199 251.816 405.429 254.463 416.656C257.608 430 255.578 448.592 249.602 461.176C241.292 478.674 225.734 486.898 201 486.867C172.426 486.831 153.567 474.185 147.531 451.011C146.319 446.359 146 438.815 146 414.843V384.553H73H0V409.879C0 437.166 1.041 451.722 4.036 466.312C16.033 524.745 57.372 562.846 125.195 577.977C173.842 588.83 236.607 587.634 282.137 574.986C310.711 567.048 333.583 554.693 351.331 537.611C374.457 515.353 385.684 491.22 390.668 453.053C393.096 434.468 393.083 395.197 390.645 379.553C384.036 337.149 359.572 305.332 307.355 271.227C290.068 259.936 274.671 251.109 235.5 230.031C187.239 204.063 169.697 192.636 156.957 178.872C146.785 167.881 143 157.805 143 141.714C143 110.823 161.606 92.5191 192.96 92.5681C214.322 92.6011 229.899 100.506 237.796 115.322C243.176 125.416 244 130.586 244 154.263V175.553H312H380L379.991 154.803C379.975 114.379 376.532 94.4101 365.918 73.1631C346.008 33.3121 304.259 9.64706 240.436 2.03506C224.666 0.154063 183.791 -0.649929 167.747 0.605071ZM1937 3.58407C1863.74 9.28707 1813.92 35.1271 1790.69 79.4591C1785.81 88.7611 1780.87 101.993 1778.58 111.855C1772.18 139.481 1772.34 175.41 1778.98 200.73C1787.9 234.748 1814 265.122 1860 295.016C1873.75 303.952 1888.2 312.413 1918.08 329.024C1932.61 337.101 1951.3 347.779 1959.61 352.752C1993.67 373.137 2013.05 391.256 2020.11 409.317C2023.23 417.3 2023.91 435.322 2021.51 446.283C2017.05 466.632 2006.29 478.138 1987 483.211C1978.31 485.495 1959.77 485.523 1951.28 483.263C1936.98 479.459 1925.04 470.494 1919.69 459.536C1914.85 449.636 1914.04 442.769 1914.02 411.803L1914 383.553H1841.89H1769.78L1770.29 416.303C1770.72 443.434 1771.16 450.94 1772.85 460.053C1783.69 518.525 1821.88 556.751 1885.86 573.167C1936.46 586.15 2003.34 585.485 2051.56 571.519C2080.33 563.187 2100.95 551.614 2119.14 533.593C2147.77 505.226 2158.44 472.464 2158.4 413.053C2158.38 387.914 2157.29 377.646 2152.94 361.658C2144.46 330.48 2116.63 298.884 2072.5 270.323C2057.79 260.802 2040.32 250.845 2004.73 231.69C1954.81 204.821 1937.74 193.717 1925 179.809C1912.68 166.364 1908.5 150.037 1912.51 131.07C1917.52 107.444 1934.77 94.5941 1961.5 94.5851C1981.55 94.5791 1997.45 102.875 2005.37 117.47C2010.42 126.783 2011.19 131.318 2011.73 154.803L2012.22 176.553H2079.11H2146V153.592C2146 140.964 2145.5 126.001 2144.89 120.342C2137.7 53.5891 2091.89 15.0141 2008 5.0831C1991.78 3.1631 1952.94 2.34307 1937 3.58407ZM3579.5 3.18106C3566.81 4.45006 3545.89 7.92308 3535.24 10.5291C3503.38 18.3241 3479.56 30.9651 3459.9 50.5131C3437.14 73.1251 3425.95 97.3241 3419.87 137.053C3418.15 148.309 3417.37 409.824 3419 430.553C3420.48 449.45 3422.27 459.596 3426.48 473.053C3447.55 540.437 3517.99 577.167 3620.5 574.232C3724.43 571.257 3787.48 528.527 3800.03 452.553C3803.37 432.278 3804 413.644 3804 334.116V256.553H3707.5H3611V296.553V336.553H3639H3667L3666.98 383.803C3666.96 435.401 3666.56 440.074 3661.33 449.688C3652.32 466.242 3636 475.314 3613.5 476.277C3583.45 477.563 3562.06 464.03 3555.27 439.448C3553.62 433.474 3553.5 423.713 3553.5 291.053C3553.5 157.271 3553.61 148.604 3555.32 141.299C3561.62 114.434 3580.52 100.249 3610 100.249C3627.99 100.249 3640.29 104.721 3650.62 115.012C3662.73 127.071 3664.98 134.942 3665.72 167.803L3666.25 191.553H3734.62H3803V174.198C3803 114.094 3791.85 79.3021 3763.53 51.0461C3738.93 26.5051 3708.22 12.8851 3660.5 5.36209C3649.77 3.67009 3641.92 3.26709 3615.5 3.04709C3597.9 2.90109 3581.7 2.96106 3579.5 3.18106ZM2285.42 17.8961C2285.14 18.6431 2285.07 114.158 2285.27 230.153C2285.6 418.075 2285.81 442.212 2287.25 451.689C2292.83 488.411 2303.67 511.534 2325.4 533.069C2354.42 561.838 2394.49 576.12 2456.24 579.703C2497.88 582.119 2540.39 577.238 2571.69 566.447C2629.41 546.542 2660.89 505.043 2665.96 442.158C2666.63 433.791 2667 356.795 2667 222.908V16.5531H2598.52H2530.04L2529.77 228.803L2529.5 441.053L2527.26 447.625C2521.59 464.304 2510.47 475.017 2493.46 480.187C2484.43 482.931 2465.66 482.65 2457.04 479.643C2441.69 474.288 2432.11 465.025 2425.65 449.298L2423.5 444.053L2423 230.553L2422.5 17.0531L2354.22 16.796C2297.47 16.582 2285.86 16.7681 2285.42 17.8961ZM581.584 20.3031C579.851 28.6001 482 561.059 482 562.194C482 563.327 494.147 563.553 554.955 563.553H627.909L628.475 560.303C629.638 553.61 702 69.7791 702 68.6901C702 68.0641 702.9 67.5531 704 67.5531C705.1 67.5531 706 68.1171 706 68.8061C706 70.0281 776.412 553.854 777.528 560.303L778.091 563.553H851.064H924.038L923.517 561.303C922.856 558.451 824 18.8671 824 18.1121C824 17.8051 769.586 17.5531 703.079 17.5531H582.159L581.584 20.3031ZM1044.62 24.799C1044.14 31.203 1032.89 546.768 1032.97 558.803L1033 563.553H1101H1169L1169.01 521.803C1169.03 418.148 1172.09 73.0641 1173 72.1561C1173.53 71.6231 1174.24 71.4581 1174.57 71.7901C1174.9 72.1221 1195.39 181.892 1220.09 315.723C1244.8 449.555 1265.24 560.066 1265.52 561.303L1266.04 563.553H1334.88H1403.72L1404.76 558.303C1405.33 555.415 1425.71 445.053 1450.05 313.053C1474.39 181.053 1494.68 72.6261 1495.15 72.1031C1495.69 71.5031 1496.32 71.5031 1496.87 72.1031C1497.52 72.8141 1501.19 498.881 1501.03 554.303L1501 563.553H1569.04H1637.09L1636.49 545.803C1636.16 536.04 1633.68 422.753 1630.98 294.053C1628.29 165.353 1625.79 50.4911 1625.43 38.8031L1624.78 17.5531L1514.14 17.554L1403.5 17.5561L1370.01 226.176C1338.44 422.88 1335.82 437.921 1333.58 435.427C1333.39 435.221 1318.2 341.228 1299.81 226.553L1266.37 18.0531L1155.77 17.799L1045.17 17.5441L1044.62 24.799ZM2819 288.053V558.553H2885.5H2952L2951.99 546.303C2951.99 539.566 2950.42 441.803 2948.5 329.053C2946.58 216.303 2945.01 121.691 2945.01 118.803C2945 110.555 2947.37 111.878 2950.39 121.803C2951.77 126.341 2965.54 171.903 2980.99 223.053C2996.44 274.203 3025.57 370.618 3045.71 437.308L3082.34 558.563L3178.92 558.308L3275.5 558.053L3275.75 287.803L3276 17.5531H3208.48H3140.95L3141.52 37.8031C3141.84 48.9411 3143.4 137.703 3145 235.053C3146.6 332.403 3148.13 419.816 3148.4 429.303C3148.85 445.206 3148.76 446.553 3147.15 446.553C3145.7 446.553 3135.2 411.434 3083.55 233.803C3049.53 116.79 3021.48 20.2651 3021.23 19.3031C3020.79 17.6511 3015.12 17.5531 2919.88 17.5531H2819V288.053Z" fill="#E3E6E6"/>
</svg>
